<?xml version="1.0" standalone="no"?>
<!DOCTYPE svg PUBLIC "-//W3C//DTD SVG 20010904//EN"
 "http://www.w3.org/TR/2001/REC-SVG-20010904/DTD/svg10.dtd">
<svg version="1.0" xmlns="http://www.w3.org/2000/svg"
 width="512.000000pt" height="512.000000pt" viewBox="0 0 512.000000 512.000000"
 preserveAspectRatio="xMidYMid meet">
<metadata>
Created by potrace 1.14, written by Peter Selinger 2001-2017
</metadata>
<g transform="translate(0.000000,512.000000) scale(0.100000,-0.100000)"
fill="#000000" stroke="none">
<path d="M1295 4866 c-64 -29 -95 -84 -95 -171 0 -50 -2 -55 -24 -61 -37 -9
-59 -49 -51 -90 5 -27 14 -39 41 -51 l34 -17 0 -117 0 -117 -30 -12 c-17 -7
-32 -11 -34 -9 -5 6 -136 362 -136 370 0 4 -9 29 -20 55 l-21 48 -52 -80 c-29
-43 -96 -146 -149 -229 l-96 -150 -6 -80 c-4 -44 -8 -91 -10 -105 -5 -27 -15
-120 -21 -185 -2 -22 -6 -56 -9 -75 -3 -19 -8 -60 -11 -90 -10 -97 -17 -161
-30 -265 -6 -42 -13 -110 -20 -180 -4 -33 -8 -67 -10 -75 -2 -8 -7 -51 -11
-95 -3 -44 -8 -89 -10 -100 -2 -11 -6 -45 -9 -75 -12 -112 -25 -226 -30 -260
-2 -14 -7 -54 -10 -90 -3 -36 -8 -76 -10 -90 -2 -14 -7 -53 -10 -88 -4 -35 -8
-71 -10 -80 -1 -9 -6 -51 -10 -92 -8 -86 -12 -120 -19 -170 -3 -19 -8 -60 -11
-91 -2 -31 -7 -72 -9 -90 -3 -19 -8 -59 -11 -89 -3 -30 -7 -68 -9 -85 -3 -16
-7 -58 -11 -92 -3 -34 -7 -70 -9 -80 -2 -10 -7 -52 -11 -93 -3 -41 -8 -82 -10
-90 -2 -8 -7 -45 -10 -82 -3 -37 -7 -75 -9 -85 -3 -16 -10 -78 -22 -193 -2
-19 -6 -53 -8 -75 -3 -22 -8 -65 -11 -95 -3 -30 -8 -62 -10 -70 -9 -34 -20
-170 -20 -245 0 -91 15 -128 72 -181 50 -48 110 -68 181 -61 66 5 108 24 151
66 53 52 68 98 86 276 3 33 8 74 10 90 3 17 7 59 10 95 3 36 7 75 9 85 3 18
14 115 21 185 4 47 16 145 20 170 2 14 6 50 9 81 3 31 8 72 11 90 2 19 7 59
10 89 3 30 7 69 9 85 4 27 14 124 21 195 2 14 5 43 8 65 4 22 9 63 12 90 3 28
7 70 10 95 3 25 8 68 10 95 3 28 10 84 15 125 5 41 12 100 15 130 3 30 8 71
10 90 2 19 7 60 10 90 3 30 8 73 11 95 2 22 7 63 9 90 3 28 8 68 11 90 3 22 7
57 9 77 2 21 6 59 9 85 4 27 9 68 11 92 3 24 7 60 9 80 8 62 19 162 31 271 3
30 7 71 10 90 2 19 7 60 10 90 4 30 8 66 10 80 2 14 7 54 10 90 3 36 8 79 11
95 2 17 7 53 10 80 3 28 6 64 8 80 2 17 4 44 5 61 l1 31 35 -16 34 -16 1 -116
c0 -117 0 -117 -25 -123 -16 -4 -32 -20 -42 -40 -21 -45 -8 -86 35 -105 l32
-15 0 -115 0 -116 -33 -16 c-60 -30 -58 -119 3 -140 l30 -11 0 -117 0 -117
-35 -17 c-21 -10 -37 -26 -41 -42 -9 -37 14 -85 48 -97 l28 -10 0 -119 c0
-118 0 -119 -24 -125 -37 -9 -59 -49 -51 -90 5 -27 14 -39 41 -51 l34 -17 0
-115 0 -116 -33 -16 c-60 -30 -58 -119 3 -140 l30 -11 0 -118 c0 -118 0 -118
-25 -124 -16 -4 -32 -20 -42 -41 -14 -29 -14 -38 -3 -65 8 -20 24 -36 42 -42
l28 -10 0 -118 c0 -118 0 -118 -25 -124 -16 -4 -32 -20 -42 -40 -21 -45 -8
-86 35 -105 l32 -15 0 -116 0 -116 -35 -17 c-60 -29 -58 -109 3 -136 l32 -15
0 -118 c0 -116 0 -118 -24 -124 -65 -16 -73 -112 -12 -141 32 -15 34 -18 38
-85 6 -77 22 -108 78 -145 l33 -23 1573 3 c1571 2 1573 2 1600 23 15 11 37 33
48 48 21 27 21 36 24 896 l2 868 109 4 c118 3 141 12 185 72 20 26 21 42 23
321 3 288 2 293 -20 325 -44 65 -67 75 -188 78 l-109 4 -1 931 c0 513 -2 941
-4 951 -5 28 -37 68 -75 93 l-33 23 -1561 0 c-1281 -1 -1566 -3 -1591 -14z"/>
</g>
</svg>
